<?xml version="1.0" standalone="no"?>
<svg xmlns:xlink="http://www.w3.org/1999/xlink" id="wave" style="transform:rotate(180deg); transition: 0.3s" viewBox="0 0 1440 100" version="1.1" xmlns="http://www.w3.org/2000/svg"><defs><linearGradient id="sw-gradient-0" x1="0" x2="0" y1="1" y2="0"><stop stop-color="rgba(248, 92, 92, 1)" offset="0%"/><stop stop-color="rgba(248, 92, 92, 1)" offset="100%"/></linearGradient></defs><path style="transform:translate(0, 0px); opacity:1" fill="url(#sw-gradient-0)" d="M0,50L26.7,53.3C53.3,57,107,63,160,56.7C213.3,50,267,30,320,18.3C373.3,7,427,3,480,1.7C533.3,0,587,0,640,13.3C693.3,27,747,53,800,65C853.3,77,907,73,960,66.7C1013.3,60,1067,50,1120,40C1173.3,30,1227,20,1280,13.3C1333.3,7,1387,3,1440,6.7C1493.3,10,1547,20,1600,25C1653.3,30,1707,30,1760,40C1813.3,50,1867,70,1920,71.7C1973.3,73,2027,57,2080,43.3C2133.3,30,2187,20,2240,18.3C2293.3,17,2347,23,2400,31.7C2453.3,40,2507,50,2560,58.3C2613.3,67,2667,73,2720,78.3C2773.3,83,2827,87,2880,83.3C2933.3,80,2987,70,3040,60C3093.3,50,3147,40,3200,41.7C3253.3,43,3307,57,3360,51.7C3413.3,47,3467,23,3520,25C3573.3,27,3627,53,3680,53.3C3733.3,53,3787,27,3813,13.3L3840,0L3840,100L3813.3,100C3786.7,100,3733,100,3680,100C3626.7,100,3573,100,3520,100C3466.7,100,3413,100,3360,100C3306.7,100,3253,100,3200,100C3146.7,100,3093,100,3040,100C2986.7,100,2933,100,2880,100C2826.7,100,2773,100,2720,100C2666.7,100,2613,100,2560,100C2506.7,100,2453,100,2400,100C2346.7,100,2293,100,2240,100C2186.7,100,2133,100,2080,100C2026.7,100,1973,100,1920,100C1866.7,100,1813,100,1760,100C1706.7,100,1653,100,1600,100C1546.7,100,1493,100,1440,100C1386.7,100,1333,100,1280,100C1226.7,100,1173,100,1120,100C1066.7,100,1013,100,960,100C906.7,100,853,100,800,100C746.7,100,693,100,640,100C586.7,100,533,100,480,100C426.7,100,373,100,320,100C266.7,100,213,100,160,100C106.7,100,53,100,27,100L0,100Z"/></svg>